<svg width="60" height="60" viewBox="0 0 60 60" fill="none" xmlns="http://www.w3.org/2000/svg">
<circle cx="30" cy="30" r="29" fill="white" stroke="#9555FE" stroke-width="2"/>
<path d="M14.4064 18.2117C19.2283 20.8902 23.6576 23.0361 27.5365 24.7436C30.6177 26.102 33.3497 27.1826 35.6358 28.0261C37.3459 24.1498 39.4943 19.7153 42.1702 14.896C24.5675 11.6645 14.4064 18.2117 14.4064 18.2117Z" fill="#FFE159"/>
<path d="M45.4706 42.6676C38.6564 38.8597 31.561 35.5787 24.2463 32.8531C22.5363 36.7295 20.4006 41.1639 17.7144 45.9832C35.3096 49.2148 45.4706 42.6676 45.4706 42.6676Z" fill="#00C4D4"/>
<path d="M14.4168 18.2194H14.3964C11.1649 35.817 17.7095 45.9781 17.7095 45.9781C20.4008 41.1639 22.5365 36.7294 24.2465 32.8531C25.6075 29.7668 26.6881 27.0322 27.5367 24.7436C23.6578 23.0361 19.2285 20.8902 14.4168 18.2194Z" fill="#316DE5"/>
<path d="M14.4296 18.2196C19.2413 20.8905 23.6707 23.0363 27.5368 24.7439C29.3208 19.9016 30.0471 17.0345 30.1134 17.009C30.1236 17.009 22.6308 15.3168 14.4296 18.2196Z" fill="#EBD456"/>
<path d="M16.4939 30.2461C16.4939 30.2461 14.794 37.7465 17.7096 45.9579C20.3855 41.1386 22.5339 36.7041 24.2415 32.8278C19.3814 31.0387 16.5194 30.3124 16.4939 30.2461Z" fill="#005FAF"/>
<path d="M42.1655 14.8961C39.4896 19.7154 37.3412 24.1499 35.6311 28.0262C31.3903 37.6495 29.8688 43.8272 29.7694 43.8705C29.7694 43.8705 37.2698 45.5653 45.4812 42.6548C48.7128 25.0572 42.1655 14.8961 42.1655 14.8961Z" fill="#FF4900"/>
<path d="M29.7694 43.8706C29.7694 43.8706 37.2596 45.5628 45.4634 42.6626C40.6517 39.9891 36.2223 37.8433 32.3486 36.1357C30.562 40.9831 29.8306 43.8451 29.7694 43.8706Z" fill="#FF3000"/>
<path d="M42.1578 14.8961C39.4818 19.7129 37.3334 24.1473 35.6259 28.0262C40.4809 29.8102 43.348 30.5416 43.3735 30.6079C43.3735 30.6104 45.0682 23.1075 42.1578 14.8961Z" fill="#FF4600"/>
</svg>
