<svg width="13" height="16" viewBox="0 0 13 16" fill="none" xmlns="http://www.w3.org/2000/svg">
<path d="M5.95136 0.108314C4.84294 0.291144 3.90334 0.954294 3.42557 1.89324C3.09432 2.54399 3.06247 2.76711 3.06247 4.49936V5.88763H2.40316C1.9445 5.88763 1.67058 5.90313 1.5177 5.93412C0.801052 6.07976 0.202254 6.66234 0.0525541 7.35958C-0.017518 7.68186 -0.017518 14.1336 0.0525541 14.4559C0.202254 15.1531 0.801052 15.7357 1.5177 15.8814C1.85213 15.9495 11.1526 15.9495 11.4871 15.8814C12.2037 15.7357 12.8025 15.1531 12.9522 14.4559C12.9904 14.2731 13 13.7184 13 10.9077C13 7.21083 13.0064 7.34099 12.7898 6.91025C12.6273 6.59107 12.277 6.2502 11.9489 6.09216C11.589 5.92172 11.3692 5.88763 10.6048 5.88763H9.94547L9.93592 4.3754L9.92317 2.86627L9.83718 2.55639C9.52504 1.43461 8.66188 0.557644 7.53117 0.216772C7.03748 0.0680285 6.44505 0.0277433 5.95136 0.108314ZM6.94192 1.35094C7.08207 1.37883 7.31458 1.4594 7.48657 1.53997C7.73501 1.65463 7.83375 1.7228 8.05034 1.93353C8.25737 2.13805 8.337 2.24031 8.4421 2.45413C8.65869 2.88797 8.66825 2.96544 8.66825 4.51485V5.88763H6.50238H4.33651V4.51485C4.33651 3.43336 4.34607 3.09869 4.38429 2.92825C4.50851 2.34567 4.94805 1.80647 5.515 1.53997C5.99595 1.31066 6.44505 1.25178 6.94192 1.35094ZM11.4265 7.22633C11.4934 7.27281 11.5858 7.36268 11.6304 7.42775L11.71 7.54241V10.9077V14.2731L11.6304 14.3877C11.5858 14.4528 11.4934 14.5427 11.4265 14.5892L11.3023 14.6728H6.50238H1.70244L1.57822 14.5892C1.51133 14.5427 1.41896 14.4528 1.37437 14.3877L1.29474 14.2731L1.28519 10.9759C1.282 8.79124 1.28837 7.64157 1.31067 7.561C1.34889 7.41846 1.56548 7.20154 1.70562 7.16125C1.76295 7.14266 3.76319 7.13336 6.55334 7.13646L11.3023 7.14266L11.4265 7.22633Z" fill="#13EAC3"/>
<path d="M6.18706 8.96034C5.69974 9.08739 5.3239 9.57391 5.3239 10.0759C5.3239 10.3703 5.54049 10.7979 5.76981 10.956L5.86218 11.018L5.87174 11.802L5.88129 12.5891L5.96729 12.713C6.09788 12.9082 6.25395 12.9857 6.50238 12.9857C6.76993 12.9857 6.93874 12.8835 7.05978 12.651C7.1394 12.4961 7.1394 12.4837 7.1394 11.7586V11.0211L7.23177 10.9591C7.46428 10.7979 7.68087 10.3734 7.68087 10.0759C7.68087 9.56461 7.30503 9.08429 6.80497 8.95724C6.57564 8.90146 6.4132 8.90146 6.18706 8.96034Z" fill="#13EAC3"/>
</svg>
