<svg width="14" height="16" viewBox="0 0 14 16" fill="none" xmlns="http://www.w3.org/2000/svg">
<path d="M6.49972 0.252875C6.42755 0.292562 6.23614 0.436046 6.07611 0.576477C4.70802 1.76709 3.12027 2.35629 1.0493 2.44177C0.368393 2.46924 0.271121 2.49672 0.120505 2.71042C0.0420587 2.82032 0.0420588 2.83558 0.0169561 3.69343C-0.0206979 4.92984 0.00754258 6.92334 0.0702992 7.54307C0.246018 9.28014 0.622558 10.6203 1.25326 11.7316C2.13499 13.2885 3.50309 14.4822 5.34813 15.3065C5.91294 15.5598 6.61268 15.8163 6.74133 15.8163C6.79468 15.8163 7.03001 15.7461 7.26535 15.6606C8.78406 15.108 10.0266 14.3448 10.9774 13.3862C12.4114 11.9361 13.1488 10.1685 13.4124 7.54307C13.4751 6.92334 13.5034 4.92984 13.4657 3.69343C13.4406 2.83558 13.4406 2.82032 13.3622 2.71042C13.2115 2.49672 13.1143 2.46924 12.4334 2.44177C10.3373 2.35629 8.69934 1.73656 7.32497 0.512367C6.94215 0.173501 6.76016 0.115497 6.49972 0.252875ZM7.04256 1.71824C7.8082 2.3166 8.73386 2.79895 9.68776 3.09813C10.353 3.30877 10.9617 3.42173 11.8215 3.49805C12.0882 3.52247 12.3141 3.54995 12.3235 3.56216C12.3643 3.59879 12.3424 7.09125 12.3016 7.48201C12.1353 9.04812 11.8686 10.0403 11.3445 11.0386C10.5099 12.6322 9.07902 13.8045 7.01746 14.5829L6.74133 14.6867L6.46834 14.5829C4.60447 13.8808 3.18931 12.8001 2.37347 11.4599C1.70197 10.3578 1.36936 9.24656 1.18109 7.48201C1.1403 7.09125 1.11834 3.59879 1.15913 3.56216C1.16854 3.54995 1.39446 3.52247 1.66118 3.49805C2.52095 3.42173 3.12969 3.30877 3.79491 3.09813C4.74881 2.79895 5.66192 2.3227 6.4401 1.71824C6.59385 1.59613 6.73192 1.49844 6.74133 1.49844C6.75075 1.49844 6.88881 1.59613 7.04256 1.71824Z" fill="#13EAC3"/>
<path d="M8.84371 5.98916C8.79978 6.00442 8.13456 6.63331 7.36265 7.38431L5.9569 8.74588L5.30737 8.11699C4.68608 7.51864 4.64842 7.48811 4.50722 7.46674C4.07106 7.40263 3.73531 7.8056 3.88593 8.20553C3.92986 8.31848 5.59919 9.9487 5.72784 10.0037C5.90042 10.0769 6.11379 10.0586 6.27382 9.95786C6.49661 9.81743 9.52148 6.84701 9.5811 6.71268C9.73799 6.33718 9.48069 5.95253 9.07277 5.95863C8.99118 5.95863 8.88764 5.9739 8.84371 5.98916Z" fill="#13EAC3"/>
</svg>
